<svg width="74" height="74" viewBox="0 0 74 74" fill="none" xmlns="http://www.w3.org/2000/svg">
<g filter="url(#filter0_d_2_297)">
<path d="M33.1011 24.221C32.2341 25.088 32.2341 26.4936 33.1011 27.3606C33.9678 28.2276 35.3735 28.2276 36.2405 27.3606L33.1011 24.221ZM46.5513 37.6714C45.6843 38.5384 45.6843 39.9438 46.5513 40.8108C47.418 41.6777 48.8237 41.6777 49.6907 40.8108L46.5513 37.6714ZM40.7246 49.7828C41.5918 48.9161 41.5921 47.5104 40.7252 46.6434C39.8585 45.7762 38.4528 45.7759 37.5858 46.6426L40.7246 49.7828ZM32.4301 54.935L33.9799 56.5245L33.9994 56.505L32.4301 54.935ZM18.9798 41.4877L17.4099 39.9177L17.39 39.9382L18.9798 41.4877ZM27.2747 36.3323C28.1416 35.4653 28.1416 34.0599 27.2747 33.1929C26.4077 32.3259 25.0021 32.3259 24.1351 33.1929L27.2747 36.3323ZM45.2122 31.842C46.0792 30.9751 46.0792 29.5695 45.2122 28.7025C44.3452 27.8355 42.9395 27.8355 42.0728 28.7025L45.2122 31.842ZM28.6225 42.1528C27.7555 43.0198 27.7555 44.4252 28.6225 45.2922C29.4894 46.1592 30.895 46.1592 31.762 45.2922L28.6225 42.1528ZM36.2405 27.3606L42.9656 20.6355L39.8262 17.4959L33.1011 24.221L36.2405 27.3606ZM42.9656 20.6355C45.8128 17.7883 50.4292 17.7883 53.2764 20.6355L56.4158 17.4959C51.8346 12.9148 44.4071 12.9148 39.8262 17.4959L42.9656 20.6355ZM53.2764 20.6355C56.1237 23.4827 56.1237 28.099 53.2764 30.9461L56.4158 34.0856C60.997 29.5046 60.997 22.0771 56.4158 17.4959L53.2764 20.6355ZM53.2764 30.9461L46.5513 37.6714L49.6907 40.8108L56.4158 34.0856L53.2764 30.9461ZM37.5858 46.6426L30.8607 53.3647L33.9994 56.505L40.7246 49.7828L37.5858 46.6426ZM30.8802 53.3455C28.0233 56.1311 23.4577 56.1027 20.6359 53.2815L17.4967 56.4212C22.0371 60.9607 29.3831 61.0065 33.9799 56.5245L30.8802 53.3455ZM20.6359 53.2815C17.8141 50.4604 17.7845 45.8946 20.5696 43.0373L17.39 39.9382C12.9088 44.5359 12.9563 51.882 17.4967 56.4212L20.6359 53.2815ZM20.5495 43.0574L27.2747 36.3323L24.1351 33.1929L17.4099 39.9177L20.5495 43.0574ZM42.0728 28.7025L28.6225 42.1528L31.762 45.2922L45.2122 31.842L42.0728 28.7025Z" fill="black"/>
</g>
<defs>
<filter id="filter0_d_2_297" x="-4" y="0" width="82" height="82" filterUnits="userSpaceOnUse" color-interpolation-filters="sRGB">
<feFlood flood-opacity="0" result="BackgroundImageFix"/>
<feColorMatrix in="SourceAlpha" type="matrix" values="0 0 0 0 0 0 0 0 0 0 0 0 0 0 0 0 0 0 127 0" result="hardAlpha"/>
<feOffset dy="4"/>
<feGaussianBlur stdDeviation="2"/>
<feComposite in2="hardAlpha" operator="out"/>
<feColorMatrix type="matrix" values="0 0 0 0 0 0 0 0 0 0 0 0 0 0 0 0 0 0 0.25 0"/>
<feBlend mode="normal" in2="BackgroundImageFix" result="effect1_dropShadow_2_297"/>
<feBlend mode="normal" in="SourceGraphic" in2="effect1_dropShadow_2_297" result="shape"/>
</filter>
</defs>
</svg>
