<svg width="74" height="75" viewBox="0 0 74 75" fill="none" xmlns="http://www.w3.org/2000/svg">
<g filter="url(#filter0_d_2_299)">
<path fill-rule="evenodd" clip-rule="evenodd" d="M37.0802 6.16675C20.0941 6.16675 6.327 19.9338 6.327 36.9199C6.327 50.5051 15.1361 62.0337 27.3584 66.1037C28.897 66.3812 29.452 65.4346 29.452 64.6206C29.452 63.8898 29.4273 61.9535 29.4181 59.3912C20.8618 61.2474 19.055 55.2657 19.055 55.2657C17.6613 51.7137 15.6417 50.7672 15.6417 50.7672C12.8513 48.8586 15.8545 48.9017 15.8545 48.9017C18.944 49.1176 20.5627 52.0714 20.5627 52.0714C23.3069 56.7704 27.7654 55.4137 29.5106 54.6275C29.7912 52.6387 30.5928 51.2821 31.4685 50.5143C24.642 49.7404 17.464 47.1011 17.464 35.3135C17.464 31.9619 18.6634 29.2116 20.6213 27.0656C20.3099 26.2855 19.2462 23.1559 20.9266 18.9256C20.9266 18.9256 23.5073 18.0962 29.3811 22.0737C31.8897 21.3912 34.4773 21.0429 37.0771 21.0377C39.6769 21.0419 42.2647 21.3902 44.7731 22.0737C50.6499 18.0931 53.2276 18.9256 53.2276 18.9256C54.908 23.1559 53.8535 26.2855 53.5328 27.0656C55.5062 29.2116 56.6902 31.9588 56.6902 35.3135C56.6902 47.1319 49.506 49.7281 42.6548 50.4897C43.7494 51.4393 44.7361 53.314 44.7361 56.1815C44.7361 60.2947 44.6991 63.6123 44.6991 64.6206C44.6991 65.4438 45.2479 66.3997 46.8173 66.0975C59.0335 62.0213 67.8333 50.502 67.8333 36.9199C67.8333 19.9338 54.0662 6.16675 37.0802 6.16675Z" fill="black"/>
</g>
<defs>
<filter id="filter0_d_2_299" x="-4" y="0" width="82" height="82" filterUnits="userSpaceOnUse" color-interpolation-filters="sRGB">
<feFlood flood-opacity="0" result="BackgroundImageFix"/>
<feColorMatrix in="SourceAlpha" type="matrix" values="0 0 0 0 0 0 0 0 0 0 0 0 0 0 0 0 0 0 127 0" result="hardAlpha"/>
<feOffset dy="4"/>
<feGaussianBlur stdDeviation="2"/>
<feComposite in2="hardAlpha" operator="out"/>
<feColorMatrix type="matrix" values="0 0 0 0 0 0 0 0 0 0 0 0 0 0 0 0 0 0 0.25 0"/>
<feBlend mode="normal" in2="BackgroundImageFix" result="effect1_dropShadow_2_299"/>
<feBlend mode="normal" in="SourceGraphic" in2="effect1_dropShadow_2_299" result="shape"/>
</filter>
</defs>
</svg>
